<?xml version="1.0" encoding="utf-8"?>
<svg version="1.1" xmlns="http://www.w3.org/2000/svg" xmlns:xlink="http://www.w3.org/1999/xlink" height="36" width="36">
  <defs>
    <path id="path-1" opacity="1" fill-rule="evenodd" d="M36,35.199951171875 C36,35.6400146484375 35.6400146484375,36 35.20001220703125,36 L0.79998779296875,36 C0.3599853515625,36 0,35.6400146484375 0,35.199951171875 C0,34.760009765625 0.3599853515625,34.4000244140625 0.79998779296875,34.4000244140625 L7.884002685546875,34.4000244140625 C6.24798583984375,33.0799560546875 5.20001220703125,31.06005859375 5.20001220703125,28.800048828125 L5.20001220703125,25.5999755859375 C5.20001220703125,25.1600341796875 5.55999755859375,24.800048828125 6,24.800048828125 L11.600006103515625,24.800048828125 C13.8599853515625,24.800048828125 15.8800048828125,25.8480224609375 17.20001220703125,27.4840087890625 L17.20001220703125,20.7640380859375 C11.839996337890625,20.35595703125 7.600006103515625,15.864013671875 7.600006103515625,10.4000244140625 C7.600006103515625,4.6639404296875 12.264007568359375,0 18,0 C23.735992431640625,0 28.399993896484375,4.6639404296875 28.399993896484375,10.4000244140625 C28.399993896484375,15.864013671875 24.160003662109375,20.35595703125 18.79998779296875,20.7679443359375 L18.79998779296875,27.488037109375 C20.1199951171875,25.8480224609375 22.1400146484375,24.800048828125 24.399993896484375,24.800048828125 L30,24.800048828125 C30.44000244140625,24.800048828125 30.79998779296875,25.1600341796875 30.79998779296875,25.5999755859375 L30.79998779296875,28.800048828125 C30.79998779296875,31.06005859375 29.75201416015625,33.0799560546875 28.115997314453125,34.4000244140625 L35.20001220703125,34.4000244140625 L36,35.199951171875 L26.800018310546875,10.4000244140625 C26.800018310546875,15.251953125 22.852020263671875,19.199951171875 18,19.199951171875 C13.14801025390625,19.199951171875 9.20001220703125,15.251953125 9.20001220703125,10.4000244140625 C9.20001220703125,5.5479736328125 13.14801025390625,1.5999755859375 18,1.5999755859375 C22.852020263671875,1.5999755859375 26.800018310546875,5.5479736328125 26.800018310546875,10.4000244140625 L18,17.5999755859375 C17.55999755859375,17.5999755859375 17.20001220703125,17.239990234375 17.20001220703125,16.7999267578125 L17.20001220703125,15.199951171875 L15.600006103515625,15.199951171875 C15.160003662109375,15.199951171875 14.79998779296875,14.8399658203125 14.79998779296875,14.39990234375 C14.79998779296875,13.9599609375 15.160003662109375,13.5999755859375 15.600006103515625,13.5999755859375 L19.20001220703125,13.5999755859375 C19.8599853515625,13.5999755859375 20.399993896484375,13.0599365234375 20.399993896484375,12.39990234375 C20.399993896484375,11.739990234375 19.8599853515625,11.199951171875 19.20001220703125,11.199951171875 L16.79998779296875,11.199951171875 C15.256011962890625,11.199951171875 14,9.9439697265625 14,8.39990234375 C14,6.85595703125 15.256011962890625,5.5999755859375 16.79998779296875,5.5999755859375 L17.20001220703125,5.5999755859375 L17.20001220703125,4 C17.20001220703125,3.5599365234375 17.55999755859375,3.199951171875 18,3.199951171875 C18.44000244140625,3.199951171875 18.79998779296875,3.5599365234375 18.79998779296875,4 L18.79998779296875,5.5999755859375 L20.399993896484375,5.5999755859375 C20.839996337890625,5.5999755859375 21.20001220703125,5.9599609375 21.20001220703125,6.39990234375 C21.20001220703125,6.8399658203125 20.839996337890625,7.199951171875 20.399993896484375,7.199951171875 L16.79998779296875,7.199951171875 C16.1400146484375,7.199951171875 15.600006103515625,7.739990234375 15.600006103515625,8.39990234375 C15.600006103515625,9.0599365234375 16.1400146484375,9.5999755859375 16.79998779296875,9.5999755859375 L19.20001220703125,9.5999755859375 C20.743988037109375,9.5999755859375 22,10.85595703125 22,12.39990234375 C22,13.9439697265625 20.743988037109375,15.199951171875 19.20001220703125,15.199951171875 L18.79998779296875,15.199951171875 L18.79998779296875,16.7999267578125 L18,17.5999755859375 L17.199981689453125,34.4000244140625 L17.199981689453125,32 C17.199981689453125,28.9119873046875 14.68798828125,26.4000244140625 11.5999755859375,26.4000244140625 L6.79998779296875,26.4000244140625 L6.79998779296875,28.800048828125 C6.79998779296875,31.8880615234375 9.311981201171875,34.4000244140625 12.399993896484375,34.4000244140625 L17.199981689453125,34.4000244140625 L29.199981689453125,28.800048828125 C29.199981689453125,31.8880615234375 26.68798828125,34.4000244140625 23.5999755859375,34.4000244140625 L18.79998779296875,34.4000244140625 L18.79998779296875,32 C18.79998779296875,28.9119873046875 21.311981201171875,26.4000244140625 24.399993896484375,26.4000244140625 L29.199981689453125,26.4000244140625 L29.199981689453125,28.800048828125 L36,35.199951171875Z"/>
  </defs>
  <g opacity="1">
    <g opacity="1">
      <use xlink:href="#path-1" fill="rgb(0,0,0)" fill-opacity="1"/>
    </g>
  </g>
</svg>